<?xml version="1.0" standalone="no"?>
<!DOCTYPE svg PUBLIC "-//W3C//DTD SVG 20010904//EN"
 "http://www.w3.org/TR/2001/REC-SVG-20010904/DTD/svg10.dtd">
<svg version="1.0" xmlns="http://www.w3.org/2000/svg"
 width="1080.000000pt" height="1080.000000pt" viewBox="0 0 1080.000000 1080.000000"
 preserveAspectRatio="xMidYMid meet">

<g transform="translate(0.000000,1080.000000) scale(0.100000,-0.100000)"
fill="#000000" stroke="none">
<path d="M5365 7674 c-273 -22 -561 -100 -780 -212 -332 -169 -626 -445 -828
-777 -49 -82 -137 -255 -141 -280 -1 -5 -12 -35 -23 -66 -23 -59 -71 -254 -98
-394 -36 -188 -29 -488 15 -696 37 -172 52 -223 103 -344 123 -295 236 -470
449 -691 87 -90 112 -124 92 -124 -4 0 -36 28 -73 63 -36 34 -92 75 -123 92
-53 28 -59 29 -74 14 -15 -15 -14 -20 3 -60 40 -89 183 -204 293 -235 30 -9
71 -28 90 -43 l35 -26 -91 -6 c-105 -8 -130 -14 -138 -34 -8 -22 18 -42 82
-61 88 -26 176 -29 275 -9 85 17 190 15 202 -4 2 -5 -36 -36 -85 -70 -86 -59
-113 -92 -92 -113 27 -27 188 37 270 108 42 36 45 36 83 25 21 -7 39 -14 39
-17 0 -2 -13 -18 -30 -34 -16 -16 -30 -34 -30 -39 0 -32 105 -31 167 2 34 18
123 23 123 8 0 -5 -23 -23 -50 -40 -89 -55 -77 -86 30 -76 81 7 130 20 192 50
45 22 59 23 254 23 195 0 210 -2 259 -24 117 -51 259 -70 285 -39 15 18 6 26
-77 76 -24 14 -40 28 -36 32 13 13 79 7 131 -13 50 -19 142 -27 155 -14 7 7
-9 42 -30 62 -19 20 -16 26 17 39 29 11 36 8 93 -31 124 -87 248 -130 263 -93
10 27 -13 53 -101 113 l-86 58 48 14 c48 14 61 14 200 -9 67 -10 97 -11 154
-1 71 12 161 48 166 67 8 28 -17 37 -123 43 l-108 5 34 29 c19 16 53 33 75 39
123 33 296 173 310 253 16 82 -25 72 -164 -39 -58 -46 -109 -81 -114 -78 -5 3
36 51 92 107 106 107 112 114 222 270 248 353 369 736 369 1168 0 212 -39 501
-80 593 -5 11 -16 45 -26 75 -47 152 -178 393 -305 560 -141 187 -320 357
-480 459 -261 166 -546 279 -825 327 -88 15 -363 25 -459 18z m305 -44 c327
-30 622 -129 896 -302 178 -112 369 -279 467 -408 23 -30 45 -57 48 -60 3 -3
34 -44 68 -92 131 -186 268 -504 317 -739 47 -227 42 -571 -12 -809 -65 -284
-201 -583 -350 -767 -135 -167 -243 -285 -256 -277 -4 3 -8 11 -6 17 1 7 -2
26 -6 44 -5 22 -3 39 8 55 40 62 65 288 43 391 -7 31 -12 37 -33 37 -21 0 -29
-10 -51 -57 -32 -72 -52 -161 -53 -235 l0 -57 -52 55 c-64 67 -84 80 -104 63
-20 -17 -17 -55 10 -122 34 -82 84 -161 133 -210 39 -39 41 -43 26 -59 -17
-19 -39 -25 -29 -9 4 5 3 11 -1 13 -5 1 -18 26 -31 53 -44 94 -99 136 -112 85
-10 -39 -2 -140 14 -195 13 -41 13 -52 2 -63 -11 -11 -14 0 -19 65 -6 74 -25
154 -39 168 -13 13 -48 -6 -48 -26 0 -11 -5 -48 -12 -83 l-12 -64 -56 -4 c-97
-8 -274 -95 -361 -178 -29 -27 -38 -30 -93 -29 -52 0 -58 2 -41 12 34 20 116
110 134 147 29 58 55 146 48 164 -10 26 -40 19 -87 -22 -92 -77 -141 -144
-198 -265 -22 -46 -42 -74 -65 -87 -45 -28 -52 -25 -29 13 25 39 62 169 62
214 0 29 -3 33 -25 33 -47 0 -181 -206 -221 -340 -23 -76 -45 -69 -80 28 -39
109 -104 219 -169 288 -29 31 -37 35 -50 24 -8 -7 -15 -25 -15 -39 0 -46 37
-173 60 -203 29 -39 19 -45 -26 -18 -25 16 -46 42 -66 84 -17 34 -39 79 -50
100 -11 22 -57 77 -102 123 -64 65 -88 83 -110 83 -28 0 -28 -1 -24 -42 9 -75
71 -187 140 -250 l52 -48 -58 0 c-57 0 -60 1 -119 56 -83 77 -262 158 -344
155 l-43 -1 0 37 c-1 83 -32 151 -64 140 -17 -6 -37 -86 -41 -166 -3 -41 -6
-75 -8 -77 -1 -2 -9 1 -17 6 -12 8 -12 15 -1 52 21 68 35 172 27 201 -4 19
-13 27 -28 27 -24 0 -58 -27 -58 -45 0 -7 -7 -18 -15 -25 -8 -6 -21 -36 -30
-66 l-16 -54 -24 16 c-32 21 -31 24 6 60 55 52 100 122 135 210 62 152 30 188
-73 82 l-60 -64 -7 81 c-10 141 -58 265 -100 265 -31 0 -36 -15 -43 -130 -5
-79 -2 -111 17 -185 12 -49 29 -103 37 -118 14 -29 10 -101 -6 -112 -9 -5
-134 121 -216 218 -103 120 -246 373 -321 569 -39 99 -86 290 -105 423 -19
129 -16 426 5 550 64 380 207 703 427 965 251 298 495 473 864 617 247 97 558
138 845 113z m-1454 -3133 c13 -72 10 -167 -5 -167 -17 0 -41 140 -40 225 1
89 1 89 16 55 8 -19 21 -70 29 -113z m2618 -104 c-9 -35 -20 -63 -25 -63 -13
0 -21 61 -15 119 4 31 17 88 29 126 l22 70 3 -95 c2 -66 -2 -114 -14 -157z
m-2471 -25 c-30 -77 -132 -220 -133 -187 0 21 26 84 45 107 7 9 32 41 55 70
22 28 43 52 45 52 3 0 -3 -19 -12 -42z m2394 -116 c19 -41 33 -75 31 -77 -14
-14 -149 200 -148 233 2 21 87 -93 117 -156z m-2727 -108 c58 -45 139 -124
127 -124 -27 0 -121 62 -169 112 -92 93 -71 100 42 12z m3060 57 c0 -20 -122
-132 -171 -156 -28 -15 -53 -25 -55 -23 -10 11 196 187 219 188 4 0 7 -4 7 -9z
m-2700 -78 c-8 -32 -25 -80 -39 -108 -25 -48 -26 -49 -29 -21 -2 16 0 32 5 35
4 3 9 23 9 45 1 21 6 41 11 45 6 3 14 17 18 31 8 25 25 43 34 35 2 -3 -2 -31
-9 -62z m2278 -6 c22 -58 35 -140 21 -132 -13 9 -48 92 -55 133 -3 20 -8 46
-11 57 -12 43 26 -7 45 -58z m-2167 -65 c4 -31 11 -78 15 -104 4 -31 3 -48 -4
-48 -23 0 -43 89 -35 163 7 69 14 66 24 -11z m2034 -89 c-7 -55 -35 -97 -35
-52 0 20 26 183 32 199 6 16 8 -104 3 -147z m-1435 -5 c0 -5 11 -26 25 -48 32
-51 22 -50 -36 3 -47 43 -92 106 -110 155 -8 21 5 13 55 -38 37 -35 66 -68 66
-72z m938 105 c-23 -52 -56 -98 -107 -147 -28 -28 -53 -47 -56 -45 -10 11 147
217 167 218 4 1 2 -11 -4 -26z m-1779 -28 c36 -41 44 -83 12 -63 -18 11 -61
76 -61 92 0 15 21 3 49 -29z m2541 3 c-15 -29 -51 -68 -62 -68 -19 0 -5 35 27
67 38 38 54 39 35 1z m-2129 -57 c97 -34 264 -131 240 -139 -40 -13 -202 60
-276 123 -46 40 -40 43 36 16z m53 -122 l71 -39 -51 0 c-53 0 -136 34 -167 68
-9 10 -19 38 -23 62 l-7 45 53 -48 c30 -27 85 -66 124 -88z m1644 104 c-18
-16 -35 -32 -36 -36 -9 -19 -109 -60 -182 -74 -68 -12 66 71 190 118 63 24 66
23 28 -8z m102 8 c0 -19 -12 -41 -20 -36 -5 3 -6 -4 -3 -15 11 -43 -67 -90
-161 -97 l-61 -4 76 41 c41 22 93 58 114 80 39 40 55 49 55 31z m-2056 -42
c29 -17 76 -69 62 -69 -19 0 -126 55 -126 65 0 30 18 31 64 4z m2246 17 c0 -2
3 -11 6 -19 5 -15 -40 -41 -106 -62 -20 -6 -21 -5 -10 14 17 32 110 88 110 67z
m-956 -93 c-25 -61 -101 -169 -113 -158 -8 9 32 91 83 167 28 42 52 73 54 68
2 -5 -9 -39 -24 -77z m-368 29 c30 -45 54 -87 89 -160 15 -32 15 -33 -2 -24
-42 23 -114 137 -126 200 -9 44 2 40 39 -16z m-970 -44 c54 -11 56 -13 29 -19
-72 -16 -226 -2 -241 22 -8 13 142 11 212 -3z m2484 3 c0 -23 -133 -38 -215
-24 l-40 7 45 12 c53 14 210 18 210 5z m-1884 -60 c-3 -4 -19 -14 -36 -21 -25
-11 -39 -10 -73 1 l-42 13 35 7 c53 10 122 10 116 0z m1209 0 l40 -2 -45 -18
c-46 -19 -66 -16 -97 14 -9 9 -3 12 25 10 20 -1 55 -3 77 -4z m-1116 -27 c-31
-33 -114 -80 -159 -89 -31 -7 -33 -6 -22 8 29 35 158 105 196 107 5 0 -1 -12
-15 -26z m179 -7 c29 -11 49 -23 45 -27 -23 -20 -125 -41 -167 -35 -25 4 -46
11 -46 15 0 4 18 24 41 45 27 25 46 34 57 30 10 -4 41 -16 70 -28z m835 -22
c12 -8 38 -26 57 -38 32 -20 33 -22 13 -25 -43 -6 -193 79 -193 110 0 10 95
-26 123 -47z m-162 14 c21 -17 39 -34 39 -39 0 -4 -23 -11 -51 -15 -40 -6 -63
-2 -110 15 l-60 23 53 22 c71 31 84 30 129 -6z m-1221 -10 c-38 -33 -157 -95
-166 -87 -13 14 151 117 186 117 9 0 1 -12 -20 -30z m1742 -30 c25 -17 52 -37
60 -46 11 -14 10 -15 -12 -8 -31 9 -129 62 -152 83 -52 45 18 26 104 -29z
m-1136 -38 c-26 -29 -129 -71 -188 -77 l-53 -6 53 31 c58 33 156 70 186 71 18
0 18 -1 2 -19z m513 -6 c38 -14 89 -37 113 -51 l43 -26 -53 6 c-59 6 -162 48
-188 77 -15 17 -15 19 -1 19 9 0 47 -11 86 -25z m-414 5 c3 -5 -3 -10 -14 -10
-12 0 -21 5 -21 10 0 6 6 10 14 10 8 0 18 -4 21 -10z m265 0 c0 -5 -7 -10 -15
-10 -8 0 -15 5 -15 10 0 6 7 10 15 10 8 0 15 -4 15 -10z"/>
<path d="M5189 6265 c-1 -5 0 -26 1 -45 1 -39 -38 -209 -77 -334 -27 -85 -147
-416 -163 -451 -6 -11 -25 -63 -44 -115 -47 -131 -87 -223 -118 -275 -56 -92
-68 -113 -68 -118 0 -4 38 -7 85 -7 l85 0 0 58 c0 95 105 458 185 639 23 50
26 53 52 47 15 -3 42 -14 58 -23 29 -17 30 -20 30 -89 0 -56 4 -75 18 -89 18
-17 19 -17 39 7 16 20 19 35 16 82 -4 49 -1 61 16 77 26 23 95 46 106 35 4 -5
17 -35 29 -67 17 -47 21 -80 21 -180 0 -175 -17 -352 -41 -425 -12 -35 -19
-65 -17 -68 3 -2 134 -3 292 -2 l287 3 -32 44 c-34 48 -102 187 -142 291 -13
36 -28 74 -32 85 -67 176 -75 209 -75 322 l0 113 130 0 c75 0 139 -5 154 -11
24 -11 56 -71 56 -104 0 -8 8 -15 18 -15 16 0 17 13 14 161 -2 113 -6 159 -14
157 -6 -2 -16 -20 -22 -39 -28 -88 -51 -99 -208 -99 l-128 0 2 198 3 197 175
0 c196 -1 242 -10 296 -57 44 -39 62 -73 72 -140 5 -38 12 -54 25 -56 15 -3
17 5 17 65 0 37 3 105 7 150 l6 83 -557 2 c-365 2 -556 0 -557 -7z m84 -197
c49 -136 117 -329 117 -332 0 -2 -12 -6 -28 -9 -38 -8 -82 -44 -97 -80 l-13
-30 -17 36 c-18 38 -47 62 -89 73 -14 3 -26 9 -26 13 0 7 80 237 99 284 6 16
11 33 11 38 0 11 19 49 24 49 2 0 10 -19 19 -42z"/>
<path d="M6923 4475 c0 -8 4 -12 9 -9 5 3 6 10 3 15 -9 13 -12 11 -12 -6z"/>
</g>
</svg>
