<?xml version="1.0" standalone="no"?>
<!DOCTYPE svg PUBLIC "-//W3C//DTD SVG 20010904//EN"
 "http://www.w3.org/TR/2001/REC-SVG-20010904/DTD/svg10.dtd">
<svg version="1.0" xmlns="http://www.w3.org/2000/svg"
 width="1080.000000pt" height="1080.000000pt" viewBox="0 0 1080.000000 1080.000000"
 preserveAspectRatio="xMidYMid meet">

<g transform="translate(0.000000,1080.000000) scale(0.100000,-0.100000)"
fill="#000000" stroke="none">
<path d="M0 5400 l0 -5400 5400 0 5400 0 0 5400 0 5400 -5400 0 -5400 0 0
-5400z m5770 2130 c14 -5 95 -30 180 -55 212 -63 246 -77 390 -163 138 -83
181 -114 80 -59 -36 20 -134 68 -218 106 -141 65 -165 73 -280 91 -70 11 -201
38 -292 59 l-165 40 140 -5 c77 -3 151 -10 165 -14z m-885 -55 c-103 -34 -108
-43 -14 -25 77 15 398 53 434 51 138 -7 395 -31 415 -39 27 -11 -73 -10 -350
3 -152 7 -158 6 -340 -30 -112 -22 -219 -50 -270 -70 -47 -19 -92 -35 -100
-37 -8 -2 -17 -5 -20 -8 -10 -10 -101 -50 -115 -50 -7 0 -16 -4 -20 -10 -6 -9
51 6 109 29 16 6 31 10 33 8 2 -3 -39 -23 -92 -45 -53 -23 -145 -71 -205 -107
-61 -36 -112 -65 -114 -65 -3 0 -32 -16 -66 -36 -61 -37 -87 -64 -294 -308
-54 -64 -100 -116 -103 -116 -2 0 4 15 12 33 15 30 13 29 -25 -13 -23 -25 -59
-81 -80 -125 -84 -177 -121 -258 -117 -261 2 -2 22 31 45 74 23 43 51 89 62
103 11 13 55 71 97 129 90 123 267 308 370 387 105 80 98 82 -17 7 l-55 -36
30 32 c40 43 143 110 160 104 11 -5 221 109 235 127 8 10 70 40 70 34 0 -4 7
1 16 10 9 9 23 14 31 11 9 -4 11 -2 7 6 -5 8 -2 9 10 5 11 -4 15 -3 10 4 -4 8
1 9 17 4 17 -4 20 -3 10 3 -18 13 -6 18 59 27 30 4 96 18 145 31 92 24 193 43
347 65 131 18 691 -8 752 -36 31 -14 178 -77 377 -161 73 -31 134 -66 195
-113 49 -37 89 -72 89 -78 0 -11 205 -183 217 -183 4 0 -9 16 -30 37 -20 20
-28 29 -17 21 11 -9 25 -14 31 -11 13 4 51 -44 83 -107 21 -41 169 -250 177
-250 2 0 1 8 -2 18 -7 21 2 10 83 -101 31 -42 58 -75 61 -73 2 3 -37 87 -86
187 -50 99 -89 179 -86 176 3 -2 45 -74 93 -159 79 -139 121 -242 92 -223 -12
7 4 -41 19 -60 5 -7 36 -88 69 -181 33 -93 66 -189 75 -213 9 -24 15 -60 14
-80 -1 -35 -1 -35 -8 9 l-7 45 -1 -55 c-1 -30 5 -100 13 -155 8 -55 15 -163
15 -240 1 -142 12 -165 24 -47 3 35 11 71 17 80 7 12 9 -33 5 -161 -3 -126 -9
-183 -18 -194 -7 -9 -21 -34 -30 -57 -11 -27 -17 -34 -18 -21 -1 11 -10 -22
-21 -74 -22 -104 -82 -296 -109 -351 -39 -78 -32 -84 20 -20 28 36 54 67 57
70 8 8 -17 -46 -78 -170 -48 -97 -68 -126 -129 -185 -39 -38 -105 -111 -145
-161 -41 -50 -115 -134 -164 -186 -122 -129 -119 -151 7 -47 107 89 146 113
169 105 9 -4 49 30 118 101 91 94 103 111 109 150 3 26 25 77 55 126 27 45 79
151 116 235 38 83 70 151 71 149 2 -2 -17 -75 -41 -162 -25 -88 -45 -162 -45
-164 0 -2 7 3 16 10 16 13 -59 -110 -97 -158 -23 -31 -163 -186 -226 -252 -29
-30 -53 -59 -53 -65 0 -22 -48 -89 -100 -142 -53 -54 -190 -134 -228 -134 -10
0 -39 -15 -63 -32 -39 -29 -42 -33 -22 -36 20 -3 99 36 243 121 l35 20 -30
-30 c-16 -17 -68 -48 -115 -69 l-84 -39 74 -7 c41 -5 78 -12 84 -18 19 -19 -9
-44 -75 -67 -98 -33 -176 -38 -280 -18 -81 15 -174 15 -202 -2 -5 -3 25 -27
65 -53 40 -26 84 -59 96 -73 27 -28 26 -60 -1 -65 -45 -9 -172 50 -261 122
-35 28 -39 28 -79 16 l-41 -12 29 -27 c17 -14 30 -35 30 -46 0 -18 -6 -20 -65
-18 -36 1 -85 3 -109 3 -58 2 -68 -12 -26 -34 39 -21 41 -25 22 -50 -12 -17
-20 -17 -108 -6 -62 8 -116 22 -159 42 -62 28 -70 29 -190 27 -69 -2 -161 -2
-205 0 -61 2 -89 -1 -117 -15 -20 -9 -35 -20 -33 -24 2 -4 -1 -7 -8 -7 -7 -1
-55 -8 -109 -17 -68 -12 -104 -13 -122 -6 -42 16 -31 34 52 82 23 13 39 28 35
31 -13 13 -79 7 -130 -13 -61 -23 -138 -29 -155 -12 -9 9 -3 21 26 51 l38 38
-33 12 c-47 16 -50 15 -111 -32 -95 -74 -239 -128 -258 -97 -16 25 15 60 104
119 96 64 96 67 -5 78 -34 3 -70 1 -91 -6 -59 -21 -186 -25 -261 -7 -94 22
-129 42 -125 69 3 25 46 35 163 36 l69 1 -34 30 c-19 16 -44 29 -55 30 -36 0
-181 80 -238 131 -91 81 -135 178 -85 187 23 4 106 -50 196 -127 50 -43 72
-58 72 -46 0 9 -15 31 -33 48 -173 166 -227 222 -233 240 -4 12 -24 45 -45 73
-91 124 -185 301 -257 484 -25 63 -74 189 -109 280 l-64 165 7 -75 c3 -41 4
-73 1 -70 -2 3 -19 46 -37 95 l-33 90 11 270 12 270 50 190 c73 279 89 334
115 395 13 30 43 104 66 164 46 118 74 165 186 304 82 101 103 120 47 42 -20
-27 -34 -50 -31 -50 3 0 40 39 83 88 43 48 83 86 89 84 5 -2 7 0 3 4 -8 7 38
66 109 140 22 23 57 47 79 54 21 7 50 21 64 30 14 10 102 64 195 122 180 110
471 246 555 258 93 15 92 7 -5 -25z m1695 -397 c0 -15 -16 -8 -50 22 l-35 30
42 -23 c24 -12 43 -25 43 -29z m87 -51 c18 -16 30 -34 27 -39 -3 -5 -2 -7 3
-6 4 2 28 -19 53 -46 l45 -50 -72 58 c-40 32 -70 62 -67 67 3 5 -1 7 -8 4 -17
-6 -71 42 -63 55 8 13 41 -4 82 -43z m282 -219 c22 -32 39 -58 37 -58 -1 0
-45 46 -97 102 -88 97 -91 100 -37 58 31 -25 75 -71 97 -102z m529 -678 c0
-15 -5 -5 -14 25 -17 63 -17 81 1 35 7 -19 13 -46 13 -60z m40 -175 c0 -37 -1
-35 -13 20 -24 112 -25 120 -6 70 11 -27 19 -68 19 -90z m9 -112 c-3 -10 -5
-2 -5 17 0 19 2 27 5 18 2 -10 2 -26 0 -35z m-230 -1740 c-19 -27 -77 -86
-129 -133 -54 -50 -76 -66 -53 -40 51 59 208 220 213 220 2 0 -12 -21 -31 -47z
m-1110 -719 c-3 -3 -12 -4 -19 -1 -8 3 -5 6 6 6 11 1 17 -2 13 -5z m-194 -101
c-7 -2 -19 -2 -25 0 -7 3 -2 5 12 5 14 0 19 -2 13 -5z m-574 -29 c8 -7 -144
-2 -189 6 -29 5 -5 6 70 3 63 -3 117 -7 119 -9z"/>
<path d="M5468 7315 c-48 -6 -90 -14 -93 -17 -3 -3 23 -9 57 -13 l63 -8 -80
-17 c-94 -21 -67 -24 63 -7 51 7 90 16 86 20 -4 4 -2 7 4 7 7 0 12 -4 12 -10
0 -5 15 -10 34 -10 18 0 61 -9 95 -20 162 -52 476 -131 500 -127 30 6 104 -30
94 -46 -3 -6 -1 -7 4 -4 6 4 35 -7 64 -23 30 -16 50 -30 44 -30 -5 0 2 -9 15
-19 165 -130 214 -173 241 -211 18 -25 63 -76 101 -113 38 -38 70 -77 71 -87
1 -11 3 -17 5 -15 3 2 17 -21 33 -53 28 -58 37 -55 19 7 -5 19 -8 36 -7 38 8
7 97 -129 91 -139 -4 -6 -3 -8 3 -5 6 4 19 -5 29 -20 9 -15 38 -50 63 -76 39
-42 58 -79 122 -238 42 -104 73 -191 70 -194 -4 -2 -17 17 -30 42 -12 25 -24
44 -26 41 -2 -2 7 -44 21 -93 35 -126 35 -124 44 -100 7 15 9 10 9 -20 0 -31
-2 -36 -9 -20 -5 12 -9 -42 -9 -142 -1 -236 -26 -385 -108 -653 -55 -181 -177
-456 -237 -535 -15 -19 -24 -35 -21 -35 4 0 -8 -18 -25 -40 -17 -22 -29 -40
-25 -40 17 0 65 43 65 59 0 15 85 141 96 141 4 0 -12 -44 -27 -72 -8 -15 -8
-18 0 -14 7 5 9 1 5 -8 -3 -9 -10 -13 -15 -10 -5 3 -6 -3 -2 -12 4 -12 3 -15
-5 -10 -8 5 -10 2 -6 -8 3 -9 -4 -27 -15 -42 -24 -30 -21 -41 6 -25 10 6 14
11 10 11 -15 0 28 61 61 87 30 23 55 66 83 143 9 24 8 23 -17 -5 -25 -29 -25
-29 -19 -5 8 32 -6 14 -41 -52 -13 -27 -27 -48 -29 -48 -3 0 42 91 99 203 99
193 107 212 164 417 34 118 64 233 67 255 9 53 -9 34 -23 -25 -14 -58 -65
-168 -57 -125 23 137 53 406 49 443 -4 41 -3 44 7 22 6 -14 14 -72 18 -130 7
-104 7 -105 14 -45 29 248 29 246 8 342 -11 50 -33 125 -49 165 -16 40 -39
106 -51 146 -12 39 -25 72 -30 72 -4 0 -13 18 -20 40 -6 22 -16 40 -22 40 -6
0 -8 4 -5 9 4 5 3 11 -1 13 -5 1 -27 41 -50 88 -39 78 -229 347 -239 337 -3
-2 5 -26 16 -53 26 -60 20 -53 -59 66 -105 158 -183 221 -473 383 -218 121
-241 131 -413 171 -356 83 -342 81 -487 61z m199 -21 c-3 -3 -12 -4 -19 -1 -8
3 -5 6 6 6 11 1 17 -2 13 -5z m105 -19 c83 -17 280 -76 274 -82 -4 -4 -347 86
-355 93 -7 6 4 5 81 -11z m1067 -623 c18 -35 27 -61 21 -57 -10 6 -60 109 -60
123 0 10 7 -3 39 -66z m401 -591 c-1 -13 -29 45 -29 59 0 8 6 0 14 -19 8 -18
15 -36 15 -40z m57 -243 c-3 -8 -6 -5 -6 6 -1 11 2 17 5 13 3 -3 4 -12 1 -19z
m-132 -973 c-33 -106 -33 -107 -44 -100 -6 3 -5 20 3 43 19 53 59 142 62 139
2 -2 -8 -39 -21 -82z m-105 -375 c-6 -11 -13 -20 -16 -20 -2 0 0 9 6 20 6 11
13 20 16 20 2 0 0 -9 -6 -20z"/>
<path d="M4943 7295 c-50 -13 -99 -28 -110 -33 -10 -5 -24 -7 -32 -4 -8 3 -11
0 -7 -7 4 -6 2 -9 -7 -5 -14 5 -231 -79 -288 -112 -35 -20 -55 -52 -25 -41 9
4 24 10 34 14 9 3 -5 -12 -33 -34 -27 -22 -53 -40 -57 -42 -4 -1 -23 -8 -43
-17 -19 -8 -35 -11 -35 -7 0 4 -7 -3 -16 -15 -8 -12 -20 -19 -26 -16 -5 3 -26
-9 -46 -28 -83 -76 -91 -76 -14 1 95 94 93 94 -38 -3 -121 -90 -308 -276 -392
-389 -204 -276 -330 -583 -383 -932 -22 -145 -22 -404 0 -550 30 -203 59 -297
141 -452 73 -138 89 -165 188 -308 26 -38 36 -56 20 -40 -15 17 -31 30 -36 30
-4 0 -31 32 -59 70 -28 39 -53 72 -56 75 -20 17 58 -110 103 -169 30 -39 53
-75 50 -80 -11 -18 258 -321 285 -321 20 0 5 19 -81 105 -49 50 -90 94 -90 99
0 12 -52 71 -60 69 -4 -1 -16 8 -26 20 l-19 22 23 -19 c26 -22 29 -12 6 18 -9
12 24 -21 74 -73 50 -52 88 -99 85 -104 -3 -6 -2 -7 4 -4 5 3 29 -14 53 -40
26 -26 46 -40 48 -33 3 7 -27 44 -64 83 -67 69 -52 61 30 -15 22 -21 42 -36
43 -34 9 9 -49 89 -119 165 -43 46 -78 88 -78 94 0 5 -6 15 -13 21 -35 29
-236 309 -265 370 -18 37 -31 70 -30 72 2 1 38 -52 80 -119 47 -74 132 -187
218 -287 78 -91 145 -167 147 -170 3 -3 3 11 -1 31 -4 23 -22 52 -54 85 -26
27 -80 99 -121 159 -40 61 -93 137 -116 170 -24 33 -84 150 -134 259 l-91 200
-22 218 -22 217 29 208 c30 219 88 457 142 580 26 59 43 79 43 50 0 -7 -27
-93 -60 -192 -33 -99 -60 -186 -60 -195 0 -8 41 86 90 210 114 286 121 301
132 294 5 -3 7 -1 6 4 -2 6 28 54 66 109 86 121 117 159 127 156 5 -2 6 3 3
10 -6 16 53 72 86 82 25 7 25 7 -5 -25 -21 -23 -24 -31 -12 -27 11 4 2 -12
-24 -43 -23 -28 -47 -50 -52 -50 -6 0 -7 -3 -4 -7 4 -3 0 -14 -9 -24 -12 -13
-12 -19 -3 -25 7 -4 10 -3 6 3 -8 13 58 74 69 65 4 -4 4 -2 1 4 -4 6 34 54 83
107 50 52 90 97 90 100 0 12 -32 -1 -56 -24 l-27 -24 18 28 c9 15 22 28 29 28
6 1 20 2 31 3 12 0 32 12 47 26 36 35 116 101 123 100 3 0 18 6 34 14 16 9 32
12 36 8 5 -4 4 -1 0 7 -6 11 -4 13 11 7 10 -4 15 -4 11 0 -12 13 46 43 61 31
9 -7 11 -6 7 5 -4 9 3 19 17 27 l23 12 -24 -5 c-22 -4 -21 -2 10 24 19 16 39
29 46 30 6 0 47 15 90 34 43 18 141 55 218 81 187 63 197 74 28 30z m-793
-428 c0 -2 -15 -16 -32 -33 l-33 -29 29 33 c28 30 36 37 36 29z m-715 -1434
c-5 -57 -1 -114 14 -212 12 -74 20 -136 18 -137 -7 -8 -47 186 -48 236 -2 61
11 190 18 190 3 0 2 -35 -2 -77z m42 -395 c-3 -8 -6 -5 -6 6 -1 11 2 17 5 13
3 -3 4 -12 1 -19z"/>
<path d="M5072 7260 c-47 -11 -69 -35 -26 -27 44 8 105 35 79 35 -11 0 -35 -4
-53 -8z"/>
<path d="M5265 7233 c-11 -2 -90 -20 -175 -40 -202 -45 -205 -46 -150 -53 25
-3 48 -1 51 3 3 4 21 9 40 10 49 4 189 39 189 48 0 4 25 13 55 19 30 6 55 13
55 16 0 5 -38 3 -65 -3z"/>
<path d="M5265 7200 c-14 -7 33 -9 150 -7 94 1 197 -1 230 -6 49 -6 55 -5 35
4 -32 15 -387 23 -415 9z"/>
<path d="M4625 7120 c-27 -17 -44 -30 -36 -30 21 0 101 40 101 51 0 14 -11 10
-65 -21z"/>
<path d="M4905 7100 c-27 -10 -62 -19 -77 -19 -16 -1 -28 -5 -28 -11 0 -5 -5
-10 -11 -10 -6 0 -22 -9 -36 -20 -21 -17 -29 -18 -42 -8 -14 12 -14 11 -2 -4
12 -16 11 -18 -11 -18 -30 0 -79 -47 -57 -54 21 -8 132 18 136 31 2 6 -8 13
-23 15 -22 2 -5 13 85 53 62 27 115 53 117 57 6 10 10 11 -51 -12z"/>
<path d="M6023 7086 c10 -8 42 -17 71 -20 31 -4 83 -22 121 -42 77 -40 100
-39 31 1 -25 15 -46 31 -46 37 0 5 -4 7 -8 4 -4 -2 -43 4 -87 14 -95 23 -106
24 -82 6z"/>
<path d="M6295 7030 c27 -12 43 -12 25 0 -8 5 -22 9 -30 9 -10 0 -8 -3 5 -9z"/>
<path d="M4505 6860 c-10 -11 -14 -20 -8 -20 5 0 18 9 28 20 10 11 14 20 8 20
-5 0 -18 -9 -28 -20z"/>
<path d="M4292 6810 c-12 -10 -18 -21 -14 -24 10 -6 48 31 41 38 -2 2 -14 -4
-27 -14z"/>
<path d="M6373 6742 c15 -19 44 -48 65 -65 85 -72 97 -83 120 -105 13 -13 21
-29 18 -37 -3 -8 0 -17 6 -21 6 -4 45 -77 86 -163 63 -133 145 -271 159 -271
6 0 -1 44 -8 50 -10 9 -71 120 -65 120 3 0 12 -12 21 -27 l15 -28 -6 30 c-7
33 -32 79 -113 211 -30 48 -54 93 -54 101 0 7 -2 12 -4 10 -1 -2 -37 29 -78
69 -41 40 -75 70 -75 68 0 -3 -26 16 -57 43 -48 40 -53 42 -30 15z"/>
<path d="M6270 6692 c0 -4 10 -13 21 -21 19 -11 21 -11 15 4 -3 9 -6 19 -6 21
0 2 -7 4 -15 4 -8 0 -15 -3 -15 -8z"/>
<path d="M4385 6630 c-16 -11 -37 -17 -45 -14 -8 3 -11 2 -8 -2 4 -3 -18 -38
-49 -77 -31 -38 -74 -102 -96 -141 -22 -39 -54 -96 -71 -126 -26 -47 -45 -120
-31 -120 9 0 56 101 51 109 -3 5 4 8 16 7 13 -1 22 6 24 17 1 10 32 54 68 98
36 45 66 86 66 93 0 7 13 31 29 53 16 23 27 44 24 47 -4 3 -1 6 5 6 7 0 31 14
54 30 42 31 44 39 5 18 -20 -10 -21 -10 -8 5 18 23 3 21 -34 -3z"/>
<path d="M5665 6400 c3 -5 15 -10 25 -10 10 0 22 5 25 10 4 6 -7 10 -25 10
-18 0 -29 -4 -25 -10z"/>
<path d="M5243 6373 c-12 -2 -27 -11 -33 -19 -10 -11 -8 -14 12 -14 23 0 88
26 88 36 0 5 -35 3 -67 -3z"/>
<path d="M5084 6269 c-19 -22 -19 -22 4 -8 12 8 22 17 22 21 0 12 -6 9 -26
-13z"/>
<path d="M5189 6260 c-1 -3 0 -21 1 -40 2 -46 -32 -198 -71 -325 -70 -220
-312 -845 -329 -845 -4 0 -7 -6 -7 -13 0 -7 -8 -25 -18 -40 -14 -22 -20 -25
-27 -15 -8 10 -9 9 -5 -4 3 -9 3 -19 -1 -22 -3 -4 -7 -13 -8 -21 -2 -10 17
-14 81 -17 l83 -3 5 80 c8 114 61 302 158 560 37 97 38 100 71 103 20 1 46 -6
67 -18 33 -21 33 -22 27 -74 -8 -60 6 -102 35 -109 28 -8 41 26 37 96 -3 60
-2 62 31 84 19 13 49 23 67 23 31 0 33 -3 53 -62 17 -49 21 -86 21 -182 0
-208 -17 -352 -55 -473 l-7 -23 286 0 c210 0 286 3 286 12 0 6 -11 25 -24 42
-30 40 -94 169 -134 271 -110 282 -106 270 -110 408 l-4 127 135 0 c135 0 135
0 166 -29 20 -19 33 -42 37 -70 5 -31 11 -41 23 -39 14 3 16 23 16 158 -1 138
-3 155 -18 158 -12 3 -17 -3 -17 -22 0 -14 -4 -26 -10 -26 -5 0 -7 -6 -4 -14
3 -7 -9 -25 -26 -40 -31 -25 -35 -26 -166 -26 l-134 0 0 196 0 196 193 -4
c215 -6 241 -12 301 -74 37 -38 56 -86 56 -141 0 -25 4 -33 19 -33 17 0 19 13
25 141 4 77 6 143 4 145 -6 6 -1108 10 -1109 4z m131 -326 c32 -88 60 -169 64
-181 6 -18 1 -23 -27 -32 -19 -6 -45 -21 -58 -34 -13 -12 -27 -21 -32 -19 -5
1 -6 -2 -2 -8 3 -5 2 -18 -4 -27 -8 -15 -12 -12 -26 19 -13 26 -31 42 -66 59
-27 12 -49 25 -49 28 -1 21 127 360 134 358 5 -2 35 -75 66 -163z"/>
<path d="M3513 6157 c-18 -39 -40 -102 -50 -139 -9 -37 -19 -65 -23 -62 -3 3
-7 33 -10 66 -5 59 -6 57 -57 -163 -29 -122 -51 -224 -49 -226 2 -2 22 52 46
119 43 126 67 178 55 124 -18 -85 -12 -79 14 14 16 58 48 154 70 214 48 128
50 158 4 53z"/>
<path d="M4048 6148 c-19 -38 -42 -118 -35 -125 5 -5 41 86 53 132 8 34 2 32
-18 -7z"/>
<path d="M6901 5999 c-1 -16 64 -263 74 -284 3 -5 3 13 0 40 -6 51 -73 273
-74 244z"/>
<path d="M4842 5918 c-6 -18 -13 -51 -17 -73 -3 -22 -8 -49 -11 -60 -4 -15 -3
-17 4 -5 13 21 46 160 39 166 -3 3 -10 -10 -15 -28z"/>
<path d="M4895 5939 c-25 -71 -35 -105 -35 -127 0 -14 3 -23 6 -20 8 9 44 151
39 157 -3 2 -7 -2 -10 -10z"/>
<path d="M6875 5843 c6 -58 11 -76 13 -53 4 44 -7 140 -16 140 -4 0 -3 -39 3
-87z"/>
<path d="M3402 5760 c0 -14 2 -19 5 -12 2 6 2 18 0 25 -3 6 -5 1 -5 -13z"/>
<path d="M3392 5710 c0 -14 2 -19 5 -12 2 6 2 18 0 25 -3 6 -5 1 -5 -13z"/>
<path d="M3382 5645 c0 -16 2 -22 5 -12 2 9 2 23 0 30 -3 6 -5 -1 -5 -18z"/>
<path d="M3358 5517 c-13 -76 -14 -105 -4 -167 l12 -75 6 165 c4 91 5 166 4
167 -1 1 -9 -39 -18 -90z"/>
<path d="M7004 5510 c3 -30 6 -68 6 -85 1 -22 3 -26 9 -15 9 15 -4 139 -16
149 -3 3 -3 -19 1 -49z"/>
<path d="M6931 5524 c0 -11 3 -14 6 -6 3 7 2 16 -1 19 -3 4 -6 -2 -5 -13z"/>
<path d="M6916 5469 c-7 -38 -8 -114 -1 -107 6 6 17 138 11 138 -2 0 -6 -14
-10 -31z"/>
<path d="M6943 5355 c0 -22 2 -30 4 -17 2 12 2 30 0 40 -3 9 -5 -1 -4 -23z"/>
<path d="M7372 5249 c-11 -71 -8 -99 9 -99 5 0 9 38 9 85 0 47 -2 85 -4 85 -2
0 -8 -32 -14 -71z"/>
<path d="M6921 5258 c0 -24 4 -65 9 -93 7 -45 7 -40 9 43 0 55 -3 92 -9 92 -5
0 -10 -19 -9 -42z"/>
<path d="M7433 5190 c0 -25 2 -35 4 -22 2 12 2 32 0 45 -2 12 -4 2 -4 -23z"/>
<path d="M7371 5074 c0 -11 3 -14 6 -6 3 7 2 16 -1 19 -3 4 -6 -2 -5 -13z"/>
<path d="M7412 5040 c0 -14 2 -19 5 -12 2 6 2 18 0 25 -3 6 -5 1 -5 -13z"/>
<path d="M7357 5016 c-3 -19 -38 -121 -78 -227 -68 -184 -78 -202 -181 -356
-59 -89 -108 -165 -108 -169 0 -4 12 3 26 17 l26 24 -7 -25 c-8 -28 -27 -51
-100 -120 -96 -92 -106 -100 -118 -94 -7 4 -9 4 -5 -1 4 -4 -15 -24 -42 -43
-31 -21 -50 -42 -50 -54 0 -31 -12 -40 245 192 116 104 205 244 291 458 20 51
32 93 28 105 -4 14 -3 17 6 12 9 -5 10 -1 5 15 -5 16 -4 20 5 15 9 -5 10 -1 5
15 -5 17 -4 21 5 15 8 -5 11 -4 7 2 -3 5 5 43 18 84 23 74 42 169 32 169 -2 0
-7 -15 -10 -34z m-128 -425 c-6 -18 -14 -30 -17 -27 -2 3 1 19 8 36 7 17 14
29 16 27 2 -2 -1 -18 -7 -36z"/>
<path d="M4681 4920 c6 -16 15 -30 20 -30 12 0 11 4 -3 35 -16 35 -29 31 -17
-5z"/>
<path d="M4740 4898 c0 -23 11 -48 21 -48 14 0 11 24 -6 46 -12 16 -14 17 -15
2z"/>
<path d="M3900 4795 c0 -13 60 -134 69 -140 17 -10 14 0 -24 75 -31 61 -45 82
-45 65z"/>
<path d="M6661 4753 c-16 -32 -18 -43 -7 -34 8 7 18 21 21 32 4 11 10 17 14
15 4 -3 7 4 7 15 0 30 -10 22 -35 -28z"/>
<path d="M4733 4768 c2 -7 13 -39 22 -70 14 -43 31 -70 71 -109 30 -29 57 -50
61 -46 3 4 -8 22 -27 40 -52 50 -86 102 -100 152 -7 25 -17 45 -22 45 -6 0 -8
-6 -5 -12z"/>
<path d="M6940 4623 c-90 -139 -102 -161 -92 -167 5 -3 42 52 82 122 89 155
82 142 77 142 -2 0 -32 -44 -67 -97z"/>
<path d="M7153 4678 c-24 -31 -75 -130 -70 -135 4 -3 18 20 33 50 15 31 32 53
37 50 6 -3 7 -1 3 6 -4 6 -2 18 4 26 7 8 10 15 7 15 -2 0 -9 -6 -14 -12z"/>
<path d="M4757 4623 c-9 -8 58 -73 75 -73 6 0 -6 18 -27 40 -44 45 -40 42 -48
33z"/>
<path d="M5120 4540 c0 -12 28 -25 36 -17 3 3 -4 10 -15 17 -15 7 -21 7 -21 0z"/>
<path d="M3990 4533 c0 -4 5 -15 10 -23 8 -13 10 -13 10 2 0 9 -4 20 -10 23
-5 3 -10 3 -10 -2z"/>
<path d="M5166 4501 c-18 -7 -18 -8 4 -14 27 -7 39 -1 24 12 -5 5 -18 5 -28 2z"/>
<path d="M6851 4376 c-61 -62 -63 -65 -48 -86 14 -21 14 -25 0 -47 -26 -39 -8
-37 22 4 18 23 23 34 13 31 -31 -12 -13 27 25 56 21 15 35 31 32 34 -3 3 2 16
11 29 33 51 6 41 -55 -21z"/>
<path d="M4990 4412 c0 -12 39 -60 40 -49 0 5 -9 20 -20 34 -11 14 -20 21 -20
15z"/>
<path d="M6716 4251 c-21 -22 -27 -37 -24 -56 3 -14 1 -28 -3 -31 -11 -7 -12
-64 -1 -64 13 0 52 45 52 59 0 7 -5 9 -12 5 -7 -4 -4 2 6 14 11 12 17 24 14
27 -3 3 -11 -1 -18 -10 -7 -8 -17 -15 -23 -15 -6 0 2 13 17 29 17 18 26 37 24
51 -3 21 -4 20 -32 -9z"/>
<path d="M6614 4157 c-21 -22 -21 -23 -3 -46 24 -30 39 -19 39 30 0 45 -6 48
-36 16z"/>
<path d="M4075 4110 c11 -53 25 -76 36 -59 15 24 10 45 -17 70 l-26 24 7 -35z"/>
<path d="M6540 4100 c0 -5 5 -10 10 -10 6 0 10 5 10 10 0 6 -4 10 -10 10 -5 0
-10 -4 -10 -10z"/>
<path d="M6567 4073 c-4 -3 -7 -13 -7 -21 0 -12 3 -12 15 -2 8 7 15 16 15 21
0 11 -14 12 -23 2z"/>
<path d="M6442 4029 c-29 -22 -52 -43 -52 -45 0 -7 18 4 65 40 22 17 42 32 44
33 2 2 2 5 -1 8 -3 3 -28 -13 -56 -36z"/>
<path d="M4310 4056 c0 -2 33 -29 73 -59 68 -53 433 -244 444 -233 11 10 -9
25 -57 42 -27 10 -45 21 -39 25 6 3 -2 11 -19 17 -17 6 -32 8 -35 5 -6 -5 -87
34 -87 42 0 3 17 -3 39 -14 21 -11 41 -18 44 -15 7 7 88 -27 83 -35 -2 -3 10
-7 27 -8 26 -2 16 6 -57 47 -88 49 -113 59 -101 40 9 -14 7 -13 -66 16 -72 29
-219 114 -219 126 0 4 -7 8 -15 8 -8 0 -15 -2 -15 -4z"/>
<path d="M4184 4025 c-19 -15 -19 -15 0 -30 24 -18 46 -4 28 18 -7 8 -9 17 -5
20 12 13 -3 7 -23 -8z"/>
<path d="M6095 4014 c-32 -16 -54 -34 -42 -34 11 0 87 40 87 45 0 9 -14 5 -45
-11z"/>
<path d="M6460 4004 c-30 -14 -66 -27 -79 -29 -13 -1 -26 -7 -30 -12 -3 -5
-21 -19 -39 -32 -18 -13 -31 -25 -28 -28 6 -6 118 26 133 39 7 5 18 6 24 2 7
-4 9 -3 6 3 -4 6 11 23 33 38 22 15 40 32 40 36 0 11 5 13 -60 -17z"/>
<path d="M6864 4022 c4 -6 -6 -19 -21 -29 -15 -9 -41 -27 -56 -40 -16 -13 -34
-20 -40 -16 -7 3 -9 3 -5 -2 4 -4 4 -13 -2 -19 -5 -7 -6 -17 -1 -24 4 -8 30
11 75 57 48 48 64 71 55 76 -7 5 -10 4 -5 -3z"/>
<path d="M6235 3964 c-37 -18 -42 -23 -20 -18 17 3 38 6 47 7 9 1 15 4 12 8
-2 4 2 9 8 12 7 2 11 7 8 9 -3 3 -27 -5 -55 -18z"/>
<path d="M4252 3968 c-15 -15 -16 -31 0 -26 6 2 12 12 14 21 3 20 2 21 -14 5z"/>
<path d="M4139 3950 c-1 -5 -2 -16 -3 -22 -1 -7 -5 -16 -11 -20 -5 -4 -6 -10
-2 -14 4 -4 18 3 32 16 19 18 22 26 14 37 -13 15 -28 17 -30 3z"/>
<path d="M6653 3943 c-16 -6 -17 -33 -3 -33 11 0 26 28 19 34 -2 2 -10 1 -16
-1z"/>
<path d="M5843 3923 c-27 -10 -11 -23 30 -23 52 0 80 14 45 23 -27 8 -57 8
-75 0z"/>
<path d="M3829 3901 c28 -52 178 -171 216 -171 16 0 -87 100 -151 146 -68 49
-80 53 -65 25z"/>
<path d="M4330 3890 c0 -18 4 -29 10 -25 6 3 10 15 10 25 0 10 -4 22 -10 25
-6 4 -10 -7 -10 -25z"/>
<path d="M6894 3861 c-76 -57 -155 -131 -141 -131 21 0 102 47 141 82 48 42
91 96 83 104 -2 3 -40 -22 -83 -55z"/>
<path d="M4191 3886 c-19 -20 -20 -25 -7 -35 12 -10 17 -7 30 18 20 38 6 48
-23 17z"/>
<path d="M4249 3853 c-5 -15 -8 -32 -5 -40 8 -21 33 -15 40 10 9 34 7 44 -9
51 -11 4 -19 -3 -26 -21z"/>
<path d="M5665 3857 l-40 -13 43 -6 c26 -4 61 -1 85 7 23 7 35 13 26 14 -9 1
-29 3 -45 6 -16 2 -47 -2 -69 -8z"/>
<path d="M6011 3861 c-7 -5 -12 -13 -10 -19 3 -6 18 -3 39 8 33 18 33 19 10
19 -14 1 -31 -3 -39 -8z"/>
<path d="M4424 3828 c3 -18 12 -36 19 -40 9 -6 9 -8 0 -8 -7 0 -13 -7 -13 -15
0 -11 11 -15 38 -15 84 0 273 -86 357 -162 47 -43 58 -48 96 -47 l44 1 -35 10
c-19 5 -39 14 -44 19 -14 13 1 11 59 -6 l50 -15 -45 45 c-40 41 -58 50 -169
85 -96 31 -149 56 -237 110 -63 39 -117 70 -120 70 -4 0 -4 -14 0 -32z"/>
<path d="M4138 3832 c-10 -11 -8 -18 11 -33 31 -25 41 -24 41 6 0 14 -5 25
-11 25 -5 0 -8 4 -5 8 9 15 -24 9 -36 -6z"/>
<path d="M6632 3838 c-13 -13 -16 -41 -5 -51 3 -4 17 3 30 15 17 16 20 24 12
35 -14 16 -22 16 -37 1z"/>
<path d="M4317 3803 c-3 -16 -2 -32 3 -36 4 -5 10 7 12 27 5 42 -7 49 -15 9z"/>
<path d="M4370 3766 c0 -18 7 -39 15 -46 17 -14 19 -4 9 49 -9 41 -24 40 -24
-3z"/>
<path d="M4878 3787 c8 -9 10 -22 6 -28 -4 -7 -3 -9 4 -5 6 3 13 2 17 -4 3 -5
10 -10 16 -10 14 0 -11 35 -35 50 -19 12 -20 12 -8 -3z"/>
<path d="M4105 3770 c9 -28 37 -71 60 -90 13 -11 15 -9 15 12 0 26 -9 40 -54
78 l-28 25 7 -25z"/>
<path d="M4220 3733 l0 -58 21 44 c21 48 19 71 -6 71 -12 0 -15 -12 -15 -57z"/>
<path d="M6551 3781 c-12 -8 -12 -14 -2 -40 7 -17 19 -36 27 -42 12 -9 14 -5
14 24 0 38 -8 67 -19 67 -3 0 -12 -4 -20 -9z"/>
<path d="M6305 3760 l-50 -19 40 5 c57 8 75 14 75 25 0 12 -6 11 -65 -11z"/>
<path d="M6661 3755 c-22 -19 -31 -35 -31 -57 l0 -31 30 34 c53 60 54 98 1 54z"/>
<path d="M4980 3751 c0 -13 26 -21 63 -20 26 0 28 2 12 8 -39 15 -75 21 -75
12z"/>
<path d="M6478 3710 c-4 -44 -2 -46 25 -26 13 10 16 21 11 40 -10 40 -31 32
-36 -14z"/>
<path d="M4290 3718 c0 -13 9 -29 21 -36 19 -12 20 -11 17 20 -4 40 -38 54
-38 16z"/>
<path d="M6406 3722 c-3 -5 -8 -32 -12 -60 -5 -43 -4 -52 9 -52 14 0 37 65 37
104 0 17 -25 22 -34 8z"/>
<path d="M5210 3710 c8 -5 78 -9 155 -9 102 1 129 4 100 10 -58 12 -274 11
-255 -1z"/>
<path d="M4495 3703 c89 -84 259 -167 307 -151 17 6 -85 71 -176 113 -72 33
-150 56 -131 38z"/>
<path d="M6118 3694 c-16 -8 -28 -17 -28 -19 0 -6 52 16 65 27 15 13 -7 9 -37
-8z"/>
<path d="M4440 3691 c0 -5 12 -17 28 -26 l27 -18 -24 27 c-26 28 -31 31 -31
17z"/>
<path d="M6301 3650 c-29 -27 -77 -61 -107 -77 -29 -15 -52 -29 -50 -30 1 -1
34 6 72 17 84 24 91 24 39 -1 -22 -10 -35 -19 -28 -19 21 0 82 33 77 42 -3 4
2 8 10 8 9 0 22 10 30 23 16 25 29 87 18 87 -4 -1 -31 -23 -61 -50z"/>
<path d="M4370 3680 c0 -25 30 -81 41 -75 19 12 -8 85 -32 85 -5 0 -9 -5 -9
-10z"/>
<path d="M5090 3676 c0 -2 9 -6 20 -9 11 -3 20 -1 20 4 0 5 -9 9 -20 9 -11 0
-20 -2 -20 -4z"/>
<path d="M6242 3669 c-13 -5 -28 -7 -33 -3 -5 3 -9 1 -9 -4 0 -4 -24 -16 -53
-25 -57 -18 -153 -74 -143 -84 21 -21 235 75 260 116 8 13 8 13 -22 0z"/>
<path d="M4251 3648 c-7 -11 -11 -22 -9 -24 5 -5 117 -54 124 -54 15 0 -22 43
-59 69 -43 29 -43 29 -56 9z"/>
<path d="M5180 3650 c0 -5 5 -10 11 -10 5 0 7 5 4 10 -3 6 -8 10 -11 10 -2 0
-4 -4 -4 -10z"/>
<path d="M6505 3641 c-35 -21 -71 -59 -63 -66 3 -3 32 7 66 22 52 24 59 31 51
46 -12 21 -17 21 -54 -2z"/>
<path d="M4450 3640 c0 -47 108 -110 187 -110 l48 0 -95 54 c-105 60 -140 73
-140 56z"/>
<path d="M5250 3640 c0 -16 31 -27 144 -50 77 -15 111 -19 119 -11 6 6 8 13 5
17 -6 6 -231 54 -254 54 -8 0 -14 -4 -14 -10z"/>
<path d="M5018 3588 c12 -12 24 -19 27 -16 8 7 -23 38 -38 38 -6 0 -2 -10 11
-22z"/>
<path d="M5561 3577 c-13 -16 -5 -27 20 -27 14 0 29 18 29 36 0 10 -39 3 -49
-9z"/>
<path d="M5090 3575 c0 -25 35 -66 63 -73 17 -5 33 -8 34 -7 2 1 -5 20 -15 43
-15 37 -21 42 -49 42 -18 0 -33 -2 -33 -5z"/>
<path d="M5213 3572 c-17 -11 23 -87 53 -101 42 -19 45 -13 19 39 -26 51 -53
74 -72 62z"/>
<path d="M5650 3567 c0 -10 10 -12 32 -9 28 4 30 6 13 13 -30 12 -45 10 -45
-4z"/>
<path d="M4050 3550 c30 -19 146 -33 206 -25 l59 8 -40 13 c-47 15 -248 19
-225 4z"/>
<path d="M5330 3502 c15 -32 34 -77 41 -101 18 -62 45 -53 74 24 12 33 25 67
29 76 5 12 -3 18 -41 26 l-48 10 55 3 55 3 -45 8 c-25 4 -68 8 -97 8 l-51 1
28 -58z"/>
<path d="M5890 3550 l-45 -7 40 -1 c22 -1 47 3 55 8 8 5 11 9 5 8 -5 0 -30 -4
-55 -8z"/>
<path d="M6565 3555 c-5 -2 -23 -7 -40 -11 l-30 -7 25 -7 c56 -17 209 -3 235
21 8 8 -166 12 -190 4z"/>
<path d="M5617 3500 c-21 -35 -19 -36 33 -10 53 27 59 40 18 40 -27 0 -37 -6
-51 -30z"/>
<path d="M5522 3508 c-17 -21 -43 -91 -36 -97 6 -6 94 88 94 101 0 13 -47 9
-58 -4z"/>
<path d="M4745 3491 l-40 -6 46 -17 c44 -15 48 -15 78 4 17 11 31 22 31 24 0
5 -66 3 -115 -5z"/>
<path d="M4919 3476 c-68 -27 -119 -58 -144 -86 -19 -21 -19 -21 10 -14 75 17
172 75 160 95 -4 5 1 9 9 9 8 0 18 5 21 10 8 13 9 13 -56 -14z"/>
<path d="M5948 3493 c7 -3 16 -2 19 1 4 3 -2 6 -13 5 -11 0 -14 -3 -6 -6z"/>
<path d="M5031 3481 c-8 -5 -10 -14 -6 -21 5 -8 4 -11 -2 -7 -13 8 -65 -31
-58 -43 3 -5 22 -11 43 -15 46 -7 135 12 125 28 -4 6 0 8 9 5 8 -4 20 -3 27 1
7 5 -8 16 -41 28 -29 12 -60 24 -68 27 -8 3 -21 2 -29 -3z"/>
<path d="M5860 3459 c62 -55 217 -118 180 -75 -26 32 -108 76 -141 76 -22 0
-29 3 -21 9 11 7 10 10 -3 15 -42 16 -49 5 -15 -25z"/>
<path d="M6023 3483 c-18 -2 -33 -8 -33 -14 0 -13 50 -10 85 6 29 13 29 13 5
13 -14 -1 -40 -3 -57 -5z"/>
<path d="M5667 3455 l-49 -23 66 -22 c49 -16 77 -20 111 -15 25 4 47 11 50 15
2 4 -13 21 -35 39 -46 37 -76 38 -143 6z"/>
<path d="M4545 3446 c-64 -30 -143 -88 -128 -93 7 -3 43 12 80 32 124 66 163
116 48 61z"/>
<path d="M6200 3454 c17 -20 138 -90 170 -99 22 -5 20 -1 -15 29 -62 54 -189
112 -155 70z"/>
<path d="M5301 3424 c24 -26 33 -26 24 -1 -4 8 -16 17 -27 20 -19 5 -19 5 3
-19z"/>
<path d="M5105 3366 c-33 -12 -82 -34 -110 -49 l-50 -26 36 -1 c46 0 135 31
188 65 22 15 41 29 41 31 0 10 -51 1 -105 -20z"/>
<path d="M5600 3385 c0 -2 17 -16 37 -30 27 -18 52 -25 88 -26 46 -2 47 -2 15
-8 l-35 -7 47 -12 c26 -6 59 -12 75 -11 28 1 28 1 -8 18 -20 9 -43 22 -50 28
-28 23 -169 63 -169 48z"/>
<path d="M5255 3370 c-3 -5 3 -10 15 -10 12 0 18 5 15 10 -3 6 -10 10 -15 10
-5 0 -12 -4 -15 -10z"/>
<path d="M5515 3370 c-3 -5 3 -10 14 -10 12 0 21 5 21 10 0 6 -6 10 -14 10 -8
0 -18 -4 -21 -10z"/>
<path d="M5850 3369 c-38 -15 -6 -28 50 -20 42 6 43 8 23 19 -26 14 -39 14
-73 1z"/>
</g>
</svg>
